<svg id="visual" viewBox="0 0 1920 1080" width="1920" height="1080" xmlns="http://www.w3.org/2000/svg" xmlns:xlink="http://www.w3.org/1999/xlink" version="1.1"><rect x="0" y="0" width="1920" height="1080" fill="#002233"></rect><path d="M0 816L45.7 794C91.3 772 182.7 728 274.2 745.7C365.7 763.3 457.3 842.7 548.8 883C640.3 923.3 731.7 924.7 823 895.3C914.3 866 1005.7 806 1097 773C1188.3 740 1279.7 734 1371.2 750.7C1462.7 767.3 1554.3 806.7 1645.8 836.5C1737.3 866.3 1828.7 886.7 1874.3 896.8L1920 907L1920 1081L1874.3 1081C1828.7 1081 1737.3 1081 1645.8 1081C1554.3 1081 1462.7 1081 1371.2 1081C1279.7 1081 1188.3 1081 1097 1081C1005.7 1081 914.3 1081 823 1081C731.7 1081 640.3 1081 548.8 1081C457.3 1081 365.7 1081 274.2 1081C182.7 1081 91.3 1081 45.7 1081L0 1081Z" fill="#0066FF" stroke-linecap="round" stroke-linejoin="miter"></path></svg>